<svg xmlns="http://www.w3.org/2000/svg" xmlns:xlink="http://www.w3.org/1999/xlink" viewBox="0,0,256,256" width="50px" height="50px" fill-rule="nonzero"><g fill="#fff9e9" fill-rule="nonzero" stroke="none" stroke-width="1" stroke-linecap="butt" stroke-linejoin="miter" stroke-miterlimit="10" stroke-dasharray="" stroke-dashoffset="0" font-family="none" font-weight="none" font-size="none" text-anchor="none" style="mix-blend-mode: normal"><g transform="scale(5.12,5.12)"><path d="M4,0v48h21.14258l-0.20508,0.72656c-0.09876,0.34637 -0.00365,0.71909 0.249,0.97578c0.25265,0.25669 0.62381,0.35771 0.9717,0.26446l6,-1.59961c0.16908,-0.04531 0.32331,-0.13421 0.44727,-0.25781l15.79883,-15.69922c0.10204,-0.09859 0.18193,-0.21777 0.23438,-0.34961l0.16211,-0.16016c1.601,-1.601 1.601,-4.19978 0,-5.80078c-1.6,-1.6 -4.20078,-1.6 -5.80078,0l-0.69922,0.70117l0.04297,0.04297l-2.34375,2.34375v-14.58789l-14.59961,-14.59961zM25,2.40039l12.59961,12.59961h-12.59961zM11,19h22v2h-22zM11,25h22v2h-22zM43.75781,28.25781l2.98438,2.98438l-14.64844,14.55469l-2.97266,-2.9043zM11,31h22v2h-22zM11,37h13v2h-13zM28.14648,44.73633l2.11328,2.06445l-2.91797,0.7793z"></path></g></g></svg>