<svg xmlns="http://www.w3.org/2000/svg"  viewBox="0 0 64 64" width="50px" height="50px"><path d="M 32 3 L 1 28 L 1.4921875 28.654297 C 2.8591875 30.477297 5.4694688 30.791703 7.2304688 29.345703 L 8 28.712891 L 8 56 L 56 56 L 56 28.712891 L 56.769531 29.345703 C 58.530531 30.791703 61.140812 30.477297 62.507812 28.654297 L 63 28 L 32 3 z M 32.314453 19.121094 C 32.511953 19.131969 32.706047 19.196859 32.873047 19.318359 C 33.501047 19.774359 34.527922 20.979766 35.419922 22.509766 L 36.886719 22.9375 C 36.886719 22.9375 37.895953 21.842719 37.751953 20.011719 L 38.191406 20.048828 C 38.482406 20.072828 38.752641 20.210406 38.931641 20.441406 C 39.269641 20.877406 39.770516 21.742891 39.978516 23.212891 C 40.142516 24.369891 40.660359 24.920016 40.943359 25.291016 C 41.226359 25.663016 41.275391 25.855469 41.275391 25.855469 C 41.275391 25.855469 42.351984 25.159922 42.708984 24.169922 L 43.091797 24.466797 C 43.413797 24.717797 43.624547 25.080375 43.685547 25.484375 C 43.818547 26.363375 43.979344 27.988906 43.652344 29.378906 C 43.083344 31.797906 41.154297 32.548828 41.154297 32.548828 C 43.745297 33.714828 45 35.964844 45 35.964844 L 44.455078 36.564453 C 40.931078 35.579453 39.173828 36.28125 39.173828 36.28125 C 41.179828 37.23625 42.351562 38.929688 42.351562 38.929688 L 41.822266 39.460938 C 39.906266 38.478938 38.856 38.772 38 39 C 38 39 41 48 35 48 C 29 48 32 39 32 39 L 30.5 38.599609 C 30.5 38.599609 29 42 29 46 C 21.359 43.885 18 36 18 36 C 18 36 21.000047 33.000078 24.873047 30.455078 C 24.873047 30.455078 20.106047 25.687625 24.873047 20.390625 C 24.873047 20.390625 27.803844 20.172547 30.964844 22.935547 L 31.689453 22.763672 C 31.689453 22.763672 32.050625 21.295906 31.515625 19.378906 L 31.736328 19.255859 C 31.916328 19.154859 32.116953 19.110219 32.314453 19.121094 z M 35.5 31 C 34.672 31 34 31.672 34 32.5 C 34 33.329 34.672 34 35.5 34 C 36.328 34 37 33.328 37 32.5 C 37 31.671 36.328 31 35.5 31 z" fill="#FFF9E9"/></svg>