<svg xmlns="http://www.w3.org/2000/svg" xmlns:xlink="http://www.w3.org/1999/xlink" viewBox="0,0,256,256" width="50px" height="50px" fill-rule="nonzero"><g fill="none" fill-rule="nonzero" stroke="none" stroke-width="1" stroke-linecap="butt" stroke-linejoin="miter" stroke-miterlimit="10" stroke-dasharray="" stroke-dashoffset="0" font-family="none" font-weight="none" font-size="none" text-anchor="none" style="mix-blend-mode: normal"><g transform="scale(5.33333,5.33333)"><path d="M40.256,26.594c0.029,-6.695 -2.089,-17.387 -2.089,-17.387l1.129,-5.832h-30.711l1.129,5.832c0,0 -2.118,10.691 -2.089,17.387c0.027,5.841 0.057,9.827 1.073,12.743c-1.017,1.944 -1.017,4.902 -1.017,4.902c0,0 5.081,0.929 16.259,0.929c11.178,0 16.259,-0.972 16.259,-0.972c0,0 0,-2.915 -1.017,-4.859c1.017,-2.916 1.047,-6.89 1.074,-12.743z" fill="#FFF9E9"></path><path d="M34.101,35.227h-20.457c-1.225,0 -2.219,-0.993 -2.219,-2.219v-18.969c0,-1.225 0.993,-2.219 2.219,-2.219h20.457c1.225,0 2.219,0.993 2.219,2.219v18.969c0,1.226 -0.994,2.219 -2.219,2.219z" fill="#FFF9E9"></path><path d="M9.404,7.632h29.067l1.154,-4.632h-31.375z" fill="#FFF9E9"></path><path d="M8.698,39.061c0,0 15.242,3.638 30.485,0c1.25,2.695 1.017,5.089 1.017,5.089c1.459,0.064 -7.175,0.913 -16.925,0.919c-8.694,0.006 -15.592,-0.875 -15.592,-0.875c0,0 -0.011,-3.188 1.015,-5.133z" fill="#FFF9E9"></path><path d="M26.634,21.21c0.852,-0.674 2.79,-3.879 2.383,-4.395c-0.407,-0.515 -3.973,0.631 -4.825,1.305c-0.854,0.674 -0.999,1.911 -0.324,2.765c0.675,0.853 1.912,0.999 2.766,0.325z" fill="#56A795"></path><path d="M26.39,18.86c0.456,-0.984 0.745,-4.72 0.149,-4.996c-0.597,-0.275 -3.263,2.352 -3.721,3.337c-0.457,0.984 -0.03,2.158 0.956,2.616c0.986,0.459 2.157,0.029 2.616,-0.957z" fill="#56A795"></path><path d="M25.509,22.513c1.081,-0.111 4.433,-1.783 4.365,-2.436c-0.069,-0.652 -3.694,-1.594 -4.775,-1.479c-1.081,0.113 -1.867,1.082 -1.753,2.162c0.114,1.083 1.082,1.868 2.163,1.753zM23.869,17.422c-0.086,-1.083 -1.676,-4.474 -2.329,-4.421c-0.654,0.053 -1.684,3.653 -1.595,4.736c0.086,1.083 1.035,1.893 2.119,1.807c1.084,-0.088 1.892,-1.039 1.805,-2.122z" fill="#56A795"></path><path d="M21.063,17.698c-0.857,-0.799 -4.586,-2.34 -5.069,-1.822c-0.482,0.519 1.319,4.128 2.177,4.926c0.856,0.8 2.2,0.754 2.998,-0.104c0.8,-0.859 0.751,-2.201 -0.106,-3zM22.875,31.001c0,-1.657 1.406,-4.912 3.031,-6.078c1.516,-0.266 2.969,4.421 2.969,6.078c0,1.658 -1.343,3 -3,3c-1.657,0 -3,-1.342 -3,-3z" fill="#56A795"></path><path d="M25.906,24.923c0.711,-0.125 1.407,0.845 1.947,2.077c0.633,-0.837 1.022,-1.868 1.022,-2.999c0,-2.76 -2.238,-5 -5,-5c-2.761,0 -5,2.24 -5,5c0,2.568 1.943,4.659 4.435,4.943c0.537,-1.542 1.512,-3.244 2.596,-4.021zM27.872,27.042l0.003,-0.01c0,0 -0.013,-0.013 -0.014,-0.015c0.003,0.008 0.007,0.017 0.011,0.025z" fill="#56A795"></path><path d="M22.984,30.11c0.346,-1.737 1.542,-4.184 2.907,-5.174c-0.003,-0.003 -0.015,-0.016 -0.017,-0.017c4.251,-5.98 -1.999,-5.918 -1.999,-5.918c-7,0 -8.77,10.063 -10,14l4,-3l2.065,2.969l2.935,-2.969z" fill="#56A795"></path><path d="M28.75,22.939l-2.875,1.98l2,2.113c0,0 3.375,-1.427 6,-0.113c-1.312,-3.939 -5.125,-3.98 -5.125,-3.98z" fill="#56A795"></path><path d="M23.875,22.001c-0.552,0 -1,0.448 -1,1c0,0.552 0.448,1 1,1c0.552,0 1,-0.448 1,-1c0,-0.552 -0.448,-1 -1,-1z" fill="#FFF9E9"></path></g></g></svg>