<svg xmlns="http://www.w3.org/2000/svg" xmlns:xlink="http://www.w3.org/1999/xlink" viewBox="0,0,256,256" width="50px" height="50px" fill-rule="nonzero"><g fill="#fff9e9" fill-rule="nonzero" stroke="none" stroke-width="1" stroke-linecap="butt" stroke-linejoin="miter" stroke-miterlimit="10" stroke-dasharray="" stroke-dashoffset="0" font-family="none" font-weight="none" font-size="none" text-anchor="none" style="mix-blend-mode: normal"><g transform="scale(5.12,5.12)"><path d="M19.54688,3c-9.67578,0 -17.54687,7.05078 -17.54687,15.71484c0,4.07031 1.76953,8.01563 4.875,10.92578c0.04688,0.04688 0.22656,0.18359 0.22656,0.18359c0.21484,0.17578 0.42969,0.34766 0.62109,0.48828c-0.78516,2.33594 -3.52734,4.23438 -4.78125,4.6875c-0.82812,0.30078 -1.10156,1.06641 -0.79297,1.45313c0.46875,0.58984 1.89844,0.53516 3.27344,0.53516c4.54297,0 10.27734,-3.31641 10.27734,-3.31641c1.07422,0.21875 2.28906,0.32813 3.69531,0.32813c9.87109,0 17.60547,-6.71484 17.60547,-15.28516c0,-8.66406 -7.82812,-15.71484 -17.45312,-15.71484zM11,12h17v2h-17zM11,17h17v2h-17zM38.78516,21.19141c-0.39062,2.49219 -1.35547,4.79688 -2.78516,6.80859h3v2h-4.66016c-1.10156,1.14063 -2.37109,2.15234 -3.77734,3h8.4375v2h-12.96875c-2.07031,0.63672 -4.29297,1 -6.63672,1c-1.00391,0 -1.91406,-0.05469 -2.76562,-0.16016c1.85938,4.90625 7.80859,8.16016 15.49609,8.16016c1.15234,0 2.16016,-0.07031 3.05859,-0.20703c0.03906,-0.00781 2.81641,3.20313 8.84766,3.20313c3.40234,-0.10156 3.92188,-1.125 3.95313,-1.49219c0.08203,-0.82812 -3.52734,-1.06641 -5.19531,-3.75391c0.27734,-0.19531 0.59766,-0.42578 0.80469,-0.58594c2.80078,-2.3125 4.39063,-5.42578 4.39063,-8.65234c0,-4.90625 -3.66797,-9.28516 -9.19922,-11.32031zM11,22h12v2h-12z"></path></g></g></svg>