<svg xmlns="http://www.w3.org/2000/svg"  viewBox="0 0 30 30" width="50px" height="50px"><path d="M 15 2 A 2 2 0 0 0 13 4 A 2 2 0 0 0 14 5.7285156 L 14 6.0585938 C 11.890885 6.2920068 10.003929 7.2540735 8.5917969 8.6875 L 6.9707031 7.3398438 A 2 2 0 0 0 6.9707031 7.3378906 A 2 2 0 0 0 7 7 A 2 2 0 0 0 5 5 A 2 2 0 0 0 3 7 A 2 2 0 0 0 5 9 A 2 2 0 0 0 5.6894531 8.875 L 7.359375 10.261719 C 6.5032955 11.639166 6 13.258684 6 15 C 6 15.094318 6.0107921 15.185678 6.0136719 15.279297 A 2 2 0 0 0 5 15 A 2 2 0 0 0 3 17 A 2 2 0 0 0 5 19 A 2 2 0 0 0 6.5957031 18.201172 C 6.9305302 19.079579 7.3954385 19.891656 7.9726562 20.613281 L 6.5175781 22.068359 A 2 2 0 0 0 6 22 A 2 2 0 0 0 4 24 A 2 2 0 0 0 6 26 A 2 2 0 0 0 8 24 A 2 2 0 0 0 7.9296875 23.484375 L 9.3867188 22.027344 C 10.304691 22.761617 11.368552 23.317339 12.529297 23.648438 A 2 2 0 0 0 12 25 A 2 2 0 0 0 14 27 A 2 2 0 0 0 16 25 A 2 2 0 0 0 15.708984 23.964844 C 16.835386 23.876787 17.901318 23.579809 18.873047 23.115234 L 20.207031 25.115234 A 2 2 0 0 0 20 26 A 2 2 0 0 0 22 28 A 2 2 0 0 0 24 26 A 2 2 0 0 0 22 24 A 2 2 0 0 0 21.873047 24.005859 L 20.574219 22.058594 C 21.392507 21.41144 22.09226 20.624174 22.644531 19.734375 L 24.023438 20.285156 A 2 2 0 0 0 26 22 A 2 2 0 0 0 28 20 A 2 2 0 0 0 26 18 A 2 2 0 0 0 24.765625 18.429688 L 23.503906 17.923828 C 23.742215 17.23082 23.900694 16.502034 23.962891 15.744141 C 24.579015 15.403416 25 14.754238 25 14 C 25 13.070361 24.362956 12.296739 23.503906 12.072266 C 23.244326 11.318408 22.89429 10.607191 22.455078 9.9589844 L 23.482422 8.9316406 A 2 2 0 0 0 24 9 A 2 2 0 0 0 26 7 A 2 2 0 0 0 24 5 A 2 2 0 0 0 22 7 A 2 2 0 0 0 22.070312 7.515625 L 21.146484 8.4394531 C 19.765986 7.1455231 17.983074 6.278058 16 6.0585938 L 16 5.7304688 A 2 2 0 0 0 17 4 A 2 2 0 0 0 15 2 z M 12 11 C 12.552 11 13 11.448 13 12 C 13 12.552 12.552 13 12 13 C 11.448 13 11 12.552 11 12 C 11 11.448 11.448 11 12 11 z M 19 14 C 20.105 14 21 14.895 21 16 C 21 17.105 20.105 18 19 18 C 17.895 18 17 17.105 17 16 C 17 14.895 17.895 14 19 14 z M 12.5 17 C 13.328 17 14 17.672 14 18.5 C 14 19.328 13.328 20 12.5 20 C 11.672 20 11 19.328 11 18.5 C 11 17.672 11.672 17 12.5 17 z" fill="#374151"/></svg>