<svg xmlns="http://www.w3.org/2000/svg"  viewBox="0 0 64 64" width="50px" height="50px"><path fill="#f9e3ae" d="M23,16.969C23,10.359,28.359,5,34.969,5s11.969,5.359,11.969,11.969C46.938,22.954,41,25.723,41,31 c-0.663,0-9.389,0.006-12,0.006C29,25.723,23,22.954,23,16.969z"/><path fill="#c2cde7" d="M35,39L35,39c3.314,0,6-2.686,6-6v-2H29v2C29,36.314,31.686,39,35,39z"/><path fill="#faefde" d="M42.158,10.982L42.158,10.982c-0.849,0.849-2.191,0.989-3.171,0.296 C37.852,10.473,36.467,10,34.97,10c-1.429,0-2.755,0.432-3.863,1.172c-0.98,0.655-2.288,0.506-3.122-0.327l-0.004-0.004 c-1.107-1.107-0.948-2.967,0.354-3.837C30.23,5.736,32.513,5,34.97,5c2.553,0,4.921,0.8,6.863,2.163 C43.103,8.055,43.256,9.884,42.158,10.982z"/><path fill="#cda1a7" d="M45.99,47.51l-3.88,0.95l-16.47-9.2c0.16,0.06,0.32,0.14,0.48,0.21l9.41,4.44 c0.93,0.44,1.96,0.63,2.99,0.56l2.19-0.16c1.53-0.11,2.9,0.65,3.65,1.85c0.04,0.06,0.07,0.12,0.1,0.18 C44.77,46.96,45.35,47.4,45.99,47.51z"/><path fill="#faefde" d="M28.011,50l5.044,2.019c2.519,1.008,5.34,0.949,7.815-0.163l2.95-1.326 c0.718-0.323,1.18-1.037,1.18-1.824v-0.408c0-2.322-1.971-4.156-4.287-3.99l-2.191,0.158c-1.028,0.074-2.059-0.118-2.991-0.558 l-9.411-4.441c-2.031-0.959-4.291-1.328-6.522-1.065L7.766,39.792C6.759,39.911,6,40.764,6,41.779v12.66 c0,1.301,1.222,2.256,2.485,1.94l6.563-1.639c1.909-0.477,3.926-0.233,5.666,0.683l12.587,6.629c2.317,1.22,5.085,1.229,7.41,0.024 L62.014,51.03C63.234,50.397,64,49.137,64,47.763v-0.007c0-2.407-2.273-4.166-4.604-3.562L45,47.926"/><path fill="#efd8be" d="M43.489,56.635l-2.778,1.44c-2.325,1.206-5.093,1.197-7.41-0.024l-12.587-6.629 c-1.741-0.917-3.758-1.16-5.666-0.683L6,53v1.439c0,1.301,1.222,2.256,2.485,1.94l6.563-1.639c1.909-0.477,3.926-0.233,5.666,0.683 l12.587,6.629c2.317,1.22,5.085,1.229,7.41,0.024l7.101-3.682l-0.345-0.596C46.665,56.409,44.913,55.897,43.489,56.635z"/><path fill="#fff7f0" d="M26.12,43.467l9.411,4.441c0.932,0.44,1.963,0.632,2.991,0.558l2.191-0.158 c1.529-0.11,2.898,0.655,3.651,1.857c0.033,0.052,0.065,0.111,0.097,0.175c0.436,0.878,1.39,1.365,2.339,1.119 c4.697-1.218,16.975-4.401,17.113-4.437c-0.407-2.014-2.433-3.369-4.517-2.829L45,47.926l-0.039,0.005 c-0.198-2.142-2.058-3.78-4.248-3.622l-2.191,0.158c-1.028,0.074-2.059-0.118-2.991-0.558l-9.411-4.441 c-2.031-0.959-4.291-1.328-6.522-1.065L7.766,39.792C6.759,39.911,6,40.764,6,41.779V44l13.598-1.599 C21.829,42.139,24.088,42.508,26.12,43.467z"/><path fill="#fff7f0" d="M45.99,47.51l11.76-2.89c-3.82,0.99-8.45,2.19-10.95,2.84C46.53,47.53,46.25,47.54,45.99,47.51z"/><g><path fill="#8d6c9f" d="M11 42H9c-.552 0-1 .447-1 1s.448 1 1 1h2c.552 0 1-.447 1-1S11.552 42 11 42zM11 47H9c-.552 0-1 .447-1 1s.448 1 1 1h2c.552 0 1-.447 1-1S11.552 47 11 47zM11 52H9c-.552 0-1 .447-1 1s.448 1 1 1h2c.552 0 1-.447 1-1S11.552 52 11 52z"/><path fill="#8d6c9f" d="M62.185 44.055c-1.154-.893-2.627-1.194-4.039-.829l-13.409 3.477c-.263-.781-.718-1.494-1.331-2.064-1.013-.942-2.386-1.427-3.765-1.326l-2.191.157c-.856.057-1.716-.099-2.492-.466l-9.412-4.44c-2.203-1.04-4.647-1.44-7.065-1.154L6.649 38.799C5.139 38.978 4 40.259 4 41.778v12.661c0 .93.42 1.791 1.153 2.363.733.573 1.672.776 2.574.547l6.563-1.639c1.672-.418 3.433-.205 4.958.597l12.587 6.629c1.312.691 2.752 1.036 4.194 1.036 1.422 0 2.844-.336 4.143-1.01l21.303-11.045c1.558-.809 2.525-2.4 2.525-4.162C64 46.297 63.338 44.948 62.185 44.055zM60.554 50.143L39.251 61.188c-2.035 1.053-4.458 1.046-6.484-.021L20.18 54.538c-1.304-.687-2.741-1.037-4.19-1.037-.73 0-1.463.089-2.184.27l-6.562 1.639c-.299.076-.614.009-.859-.183C6.14 55.036 6 54.749 6 54.439V41.778c0-.507.38-.934.883-.993l11.832-1.391c2.047-.241 4.114.097 5.978.977l9.411 4.44c1.085.513 2.293.742 3.49.651l2.191-.157c.841-.052 1.642.223 2.259.796C42.661 46.676 43 47.455 43 48.298v.408c0 .394-.231.751-.59.912l-2.95 1.326c-2.216.994-4.78 1.048-7.033.146l-5.044-2.019c-.516-.206-1.095.044-1.3.558-.206.513.044 1.095.557 1.3l5.044 2.019c2.753 1.103 5.887 1.036 8.596-.179l2.949-1.326C44.305 50.96 45 49.886 45 48.706l13.647-3.545c.808-.207 1.652-.036 2.313.476.661.512 1.04 1.284 1.04 2.126C62 48.768 61.446 49.68 60.554 50.143zM34 27c0 .553.448 1 1 1s1-.447 1-1v-5.586l3.707-3.707c.391-.391.391-1.023 0-1.414s-1.023-.391-1.414 0l-4 4C34.105 20.48 34 20.734 34 21V27z"/><path fill="#8d6c9f" d="M28,31.006v1V33c0,3.859,3.14,7,7,7s7-3.141,7-7v-1v-1c0-2.237,1.285-4.053,2.646-5.975 c1.543-2.181,3.293-4.651,3.293-8.057C47.938,9.817,42.121,4,34.969,4S22,9.817,22,16.969c0,3.406,1.768,5.879,3.327,8.06 C26.702,26.951,28,28.768,28,31.006z M40,33c0,2.757-2.243,5-5,5s-5-2.243-5-5v-0.995l10-0.005V33z M34.969,6 c6.048,0,10.969,4.921,10.969,10.969c0,2.769-1.421,4.776-2.925,6.901c-1.305,1.843-2.648,3.741-2.951,6.13H29.935 c-0.307-2.393-1.664-4.292-2.982-6.135C25.435,21.741,24,19.734,24,16.969C24,10.921,28.921,6,34.969,6z"/><path fill="#8d6c9f" d="M32.293,19.707C32.488,19.902,32.744,20,33,20s0.512-0.098,0.707-0.293 c0.391-0.391,0.391-1.023,0-1.414l-2-2c-0.391-0.391-1.023-0.391-1.414,0s-0.391,1.023,0,1.414L32.293,19.707z"/></g></svg>