<svg xmlns="http://www.w3.org/2000/svg" viewBox="0 0 64 64" width="50px" height="50px">
    <path d="M 32 5 C 26.49 5 22.5 7 22.5 7 L 19.289062 15.580078 C 19.529062 15.520078 19.769766 15.460156 20.009766 15.410156 C 21.329766 15.110156 22.650469 14.879453 23.980469 14.689453 C 26.630469 14.329453 29.300703 14.169375 31.970703 14.109375 C 34.620703 14.059375 37.279219 14.149375 39.949219 14.359375 C 41.279219 14.459375 42.620937 14.600547 43.960938 14.810547 C 44.120938 14.840547 44.289219 14.860625 44.449219 14.890625 L 41.5 7 C 41.5 7 37.51 5 32 5 z M 32 17 C 18.193 17 7 19.462 7 22.5 C 7 24.35 11.154578 25.985422 17.517578 26.982422 C 17.241578 27.640422 17 28.476 17 29.5 C 17 31.98 18.500703 33.699141 19.220703 34.369141 C 20.020703 36.439141 21.409219 38.449219 22.949219 40.199219 L 22.505859 46.613281 L 18.150391 47.949219 L 18.919922 58 L 45.080078 58 L 45.849609 47.949219 L 41.494141 46.613281 L 41.050781 40.199219 C 42.590781 38.449219 43.979297 36.439141 44.779297 34.369141 C 45.499297 33.699141 47 31.98 47 29.5 C 47 28.476 46.758422 27.640422 46.482422 26.982422 C 52.845422 25.985422 57 24.35 57 22.5 C 57 19.462 45.807 17 32 17 z M 32 21 C 40.881 21 42.980469 23.679688 42.980469 23.679688 C 42.990469 23.949688 43 24.22 43 24.5 L 43 26.5 L 43.019531 27.050781 L 43.349609 27.460938 C 43.379609 27.500938 44 28.28 44 29.5 C 44 31.18 42.599844 32.300781 42.589844 32.300781 L 42.230469 32.580078 L 42.080078 33.009766 C 40.330078 38.049766 34.510469 42.32 33.230469 43 L 30.769531 43 C 29.489531 42.32 23.669922 38.049766 21.919922 33.009766 L 21.769531 32.580078 L 21.410156 32.300781 C 21.390156 32.290781 20 31.19 20 29.5 C 20 28.28 20.620625 27.500469 20.640625 27.480469 L 21 27.060547 L 21 24.5 C 21 24.22 21.019531 23.679688 21.019531 23.679688 C 21.019531 23.679688 23.119 21 32 21 z M 25.759766 43.009766 C 27.859766 44.839766 29.78 46 30.5 46 L 33.5 46 C 34.22 46 36.140234 44.839766 38.240234 43.009766 L 38.816406 51.429688 C 37.774874 52.016437 35.52095 53 32 53 C 28.47905 53 26.225126 52.016437 25.183594 51.429688 L 25.759766 43.009766 z M 13.279297 49.449219 L 5 52 L 5.4394531 54.660156 C 5.7594531 56.590156 7.430625 58 9.390625 58 L 14.259766 58 L 13.279297 49.449219 z M 50.720703 49.449219 L 49.740234 58 L 54.609375 58 C 56.569375 58 58.240547 56.590156 58.560547 54.660156 L 59 52 L 50.720703 49.449219 z" fill="#374151"/>
</svg>
