<svg xmlns="http://www.w3.org/2000/svg"  viewBox="0 0 48 48" width="50px" height="50px"><path d="M 12 5 C 11.62 5 11.260469 5.1403906 10.980469 5.4003906 L 6 10 L 42 10 L 37.019531 5.4003906 C 36.739531 5.1403906 36.38 5 36 5 L 12 5 z M 4 13 L 4 15.300781 C 4 18.440781 6.5399219 21 9.6699219 21 C 12.789922 21 15.330078 18.440781 15.330078 15.300781 L 15.330078 13 L 4 13 z M 18.330078 13 L 18.330078 15.300781 C 18.330078 18.440781 20.88 21 24 21 C 27.12 21 29.669922 18.440781 29.669922 15.300781 L 29.669922 13 L 18.330078 13 z M 32.669922 13 L 32.669922 15.300781 C 32.669922 18.440781 35.210078 21 38.330078 21 C 41.460078 21 44 18.440781 44 15.300781 L 44 13 L 32.669922 13 z M 8 22.810547 L 8 31 C 6.343 31 5 32.343 5 34 L 5 42.5 C 5 43.328 5.672 44 6.5 44 L 41.5 44 C 42.328 44 43 43.328 43 42.5 L 43 34 C 43 32.343 41.657 31 40 31 L 39.998047 31 L 39.998047 22.810547 C 39.460047 22.930547 38.904078 23 38.330078 23 C 37.875078 23 37.431047 22.952953 36.998047 22.876953 L 36.998047 31 L 11 31 L 11 22.876953 C 10.567 22.953953 10.123922 23 9.6699219 23 C 9.0959219 23 8.538 22.930547 8 22.810547 z" fill="#374151"/></svg>