<svg xmlns="http://www.w3.org/2000/svg"  viewBox="0 0 66 66" width="50px" height="50px"><path fill="#ffcd57" d="M28.36,33.7v17.72c0,3.13,2.54,5.67,5.67,5.67h10.53l7.72,5.59c1.19,0.86,2.86,0.01,2.86-1.46v-4.13h2.26 c3.13,0,5.67-2.54,5.67-5.67V33.7c0-3.13-2.54-5.67-5.67-5.67H34.03C30.9,28.03,28.36,30.57,28.36,33.7z"/><path fill="#f4ba43" d="M28.36,49.91v1.52c0,3.13,2.54,5.67,5.67,5.67h10.53l7.72,5.59c1.2,0.86,2.86,0.01,2.86-1.46v-4.13h2.26 c3.13,0,5.67-2.54,5.67-5.67V33.7c0-3.13-2.54-5.67-5.67-5.67h-3.34c3.09,2.14,4.86,4.63,4.86,7.28 c0,8.09-7.38,14.66-27.65,14.66C30.29,49.96,29.33,49.95,28.36,49.91z"/><path fill="#434a54" d="M53.34,63.74c-0.52,0-1.03-0.16-1.47-0.48l-7.54-5.46h-10.3c-3.52,0-6.38-2.86-6.38-6.38V33.7 c0-3.52,2.86-6.38,6.38-6.38H57.4c3.52,0,6.38,2.86,6.38,6.38v17.72c0,3.52-2.86,6.38-6.38,6.38h-1.55v3.42 c0,0.95-0.52,1.81-1.37,2.24C54.12,63.65,53.73,63.74,53.34,63.74z M34.03,28.74c-2.73,0-4.96,2.23-4.96,4.96v17.72 c0,2.73,2.22,4.96,4.96,4.96h10.53c0.15,0,0.29,0.05,0.42,0.13l7.72,5.59c0.34,0.25,0.77,0.28,1.14,0.09 c0.37-0.19,0.6-0.55,0.6-0.97v-4.13c0-0.39,0.32-0.71,0.71-0.71h2.26c2.73,0,4.96-2.23,4.96-4.96V33.7 c0-2.73-2.23-4.96-4.96-4.96H34.03z"/><path fill="#f5f5fa" d="M35.51,42.92c0,5.47,4.43,9.91,9.91,9.91s9.91-4.44,9.91-9.91s-4.43-9.91-9.91-9.91S35.51,37.45,35.51,42.92 z"/><path fill="#e5e8ec" d="M35.58,44.09c0.58,4.92,4.76,8.74,9.84,8.74c5.47,0,9.91-4.44,9.91-9.92c0-5.38-4.29-9.76-9.64-9.9 c0.04,0.38,0.07,0.77,0.07,1.17c0,5.47-4.44,9.92-9.91,9.92C35.77,44.09,35.67,44.09,35.58,44.09z"/><path fill="#434a54" d="M45.42,53.54c-5.86,0-10.62-4.77-10.62-10.62c0-5.86,4.76-10.62,10.62-10.62s10.62,4.76,10.62,10.62 C56.04,48.78,51.28,53.54,45.42,53.54z M45.42,33.72c-5.07,0-9.2,4.13-9.2,9.2c0,5.08,4.13,9.21,9.2,9.21s9.2-4.13,9.2-9.21 C54.62,37.84,50.5,33.72,45.42,33.72z"/><path fill="#51bfe7" d="M37.64,32.3V14.58c0-3.13-2.54-5.67-5.67-5.67H21.44l-7.72-5.59c-1.19-0.86-2.86-0.01-2.86,1.46v4.13H8.6 c-3.13,0-5.67,2.54-5.67,5.67V32.3c0,3.13,2.54,5.67,5.67,5.67h23.37C35.1,37.97,37.64,35.43,37.64,32.3z"/><path fill="#3badd8" d="M37.63,29.84v2.46c0,3.13-2.54,5.67-5.67,5.67H8.6c-3.13,0-5.67-2.54-5.67-5.67V14.57 c0-1.76,0.8-3.33,2.06-4.38c0.96,12.07,11.06,21.56,23.37,21.56C31.65,31.75,34.79,31.07,37.63,29.84z"/><path fill="#434a54" d="M31.97,38.68H8.6c-3.52,0-6.38-2.86-6.38-6.38V14.58c0-3.52,2.86-6.38,6.38-6.38h1.55V4.78 c0-0.95,0.52-1.81,1.37-2.24c0.84-0.43,1.85-0.35,2.62,0.2l7.54,5.46h10.3c3.52,0,6.38,2.86,6.38,6.38V32.3 C38.35,35.82,35.48,38.68,31.97,38.68z M8.6,9.62c-2.73,0-4.96,2.23-4.96,4.96V32.3c0,2.73,2.22,4.96,4.96,4.96h23.37 c2.73,0,4.96-2.23,4.96-4.96V14.58c0-2.73-2.22-4.96-4.96-4.96H21.44c-0.15,0-0.29-0.05-0.42-0.13L13.3,3.89 c-0.34-0.25-0.77-0.28-1.14-0.09c-0.37,0.19-0.6,0.55-0.6,0.97v4.13c0,0.39-0.32,0.71-0.71,0.71H8.6z"/><g><path fill="#f5f5fa" d="M10.67,23.08c0,5.47,4.43,9.91,9.91,9.91s9.91-4.44,9.91-9.91s-4.43-9.91-9.91-9.91 S10.67,17.61,10.67,23.08z"/><path fill="#e5e8ec" d="M10.73,24.25c0.58,4.92,4.76,8.74,9.84,8.74c5.47,0,9.91-4.44,9.91-9.92c0-5.38-4.29-9.76-9.64-9.9 c0.04,0.38,0.07,0.77,0.07,1.17c0,5.47-4.44,9.92-9.91,9.92C10.92,24.25,10.82,24.25,10.73,24.25z"/><path fill="#434a54" d="M20.58,33.7c-5.86,0-10.62-4.77-10.62-10.62c0-5.86,4.76-10.62,10.62-10.62S31.2,17.22,31.2,23.08 C31.2,28.94,26.43,33.7,20.58,33.7z M20.58,13.88c-5.07,0-9.2,4.13-9.2,9.2c0,5.08,4.13,9.21,9.2,9.21s9.2-4.13,9.2-9.21 C29.78,18.01,25.65,13.88,20.58,13.88z"/></g><g><path fill="#434a54" d="M23.51,27.59c-0.39,0-0.71-0.32-0.71-0.71V20.9c0-1.23-1-2.23-2.23-2.23c-1.23,0-2.23,1-2.23,2.23v5.99 c0,0.39-0.32,0.71-0.71,0.71c-0.39,0-0.71-0.32-0.71-0.71V20.9c0-2.01,1.64-3.65,3.65-3.65c2.01,0,3.65,1.64,3.65,3.65v5.99 C24.22,27.27,23.9,27.59,23.51,27.59z"/><path fill="#434a54" d="M23.51,23.6h-5.87c-0.39,0-0.71-0.32-0.71-0.71s0.32-0.71,0.71-0.71h5.87c0.39,0,0.71,0.32,0.71,0.71 S23.9,23.6,23.51,23.6z"/></g><g><path fill="#434a54" d="M46.13,43.63h-3.09c-0.39,0-0.71-0.32-0.71-0.71v-3.77c0-0.81,0.66-1.47,1.47-1.47h2.33 c1.64,0,2.98,1.34,2.98,2.98S47.77,43.63,46.13,43.63z M43.76,42.21h2.37c0.86,0,1.56-0.7,1.56-1.56c0-0.86-0.7-1.56-1.56-1.56 H43.8L43.76,42.21z"/><path fill="#434a54" d="M46.13,48.16H43.8c-0.81,0-1.47-0.66-1.47-1.47v-3.77c0-0.39,0.32-0.71,0.71-0.71h3.09 c1.64,0,2.98,1.33,2.98,2.98S47.77,48.16,46.13,48.16z M43.75,43.63v3.06l2.38,0.05c0.86,0,1.56-0.7,1.56-1.56 c0-0.86-0.7-1.56-1.56-1.56H43.75z"/></g></svg>