<svg xmlns="http://www.w3.org/2000/svg"  viewBox="0 0 64 64" width="50px" height="50px"><path d="M 6 12 C 4.9 12 4 12.9 4 14 L 4 50 C 4 51.1 4.9 52 6 52 L 58 52 C 59.1 52 60 51.1 60 50 L 60 14 C 60 12.9 59.1 12 58 12 L 6 12 z M 12 15 L 52 15 C 52.55 15 53 15.45 53 16 C 53 17.65 54.35 19 56 19 C 56.55 19 57 19.45 57 20 L 57 44 C 57 44.55 56.55 45 56 45 C 54.35 45 53 46.35 53 48 C 53 48.55 52.55 49 52 49 L 12 49 C 11.45 49 11 48.55 11 48 C 11 46.35 9.65 45 8 45 C 7.45 45 7 44.55 7 44 L 7 20 C 7 19.45 7.45 19 8 19 C 9.65 19 11 17.65 11 16 C 11 15.45 11.45 15 12 15 z M 12.900391 17 C 12.500391 18.96 10.96 20.500391 9 20.900391 L 9 43.099609 C 10.96 43.499609 12.500391 45.04 12.900391 47 L 51.099609 47 C 51.499609 45.04 53.04 43.499609 55 43.099609 L 55 20.900391 C 53.04 20.500391 51.499609 18.96 51.099609 17 L 12.900391 17 z M 32 20 C 38.63 20 44 25.37 44 32 C 44 38.63 38.63 44 32 44 C 25.37 44 20 38.63 20 32 C 20 25.37 25.37 20 32 20 z M 26.630859 26 C 26.080859 26 25.630859 26.45 25.630859 27 L 25.630859 35.800781 C 25.630859 36.350781 26.080859 36.800781 26.630859 36.800781 C 27.180859 36.800781 27.630859 36.350781 27.630859 35.800781 L 27.630859 32.400391 L 28.689453 32.400391 L 30.089844 36.150391 C 30.239844 36.550391 30.619297 36.800781 31.029297 36.800781 C 31.149297 36.800781 31.260859 36.780234 31.380859 36.740234 C 31.900859 36.550234 32.160703 35.969219 31.970703 35.449219 L 30.619141 31.849609 C 31.469141 31.269609 32.029297 30.299219 32.029297 29.199219 C 32.029297 27.439219 30.590078 26 28.830078 26 L 26.630859 26 z M 27.630859 28 L 28.830078 28 C 29.490078 28 30.029297 28.539219 30.029297 29.199219 C 30.029297 29.859219 29.490078 30.400391 28.830078 30.400391 L 27.630859 30.400391 L 27.630859 28 z M 34.970703 29.199219 C 34.420703 29.199219 33.970703 29.649219 33.970703 30.199219 L 33.970703 39 C 33.970703 39.55 34.420703 40 34.970703 40 C 35.520703 40 35.970703 39.55 35.970703 39 L 35.970703 35.599609 L 37.169922 35.599609 C 38.929922 35.599609 40.369141 34.160391 40.369141 32.400391 C 40.369141 30.640391 38.929922 29.199219 37.169922 29.199219 L 34.970703 29.199219 z M 35.970703 31.199219 L 37.169922 31.199219 C 37.829922 31.199219 38.369141 31.740391 38.369141 32.400391 C 38.369141 33.060391 37.829922 33.599609 37.169922 33.599609 L 35.970703 33.599609 L 35.970703 31.199219 z" fill="#374151"/></svg>