<svg width="106" height="33" viewBox="0 0 106 33" fill="none" xmlns="http://www.w3.org/2000/svg">
<path d="M0.852273 10.5881V7.54545H15.1875V10.5881H9.84375V25H6.19602V10.5881H0.852273ZM21.5476 25.2557C20.201 25.2557 19.0419 24.983 18.0703 24.4375C17.1044 23.8864 16.3601 23.108 15.8374 22.1023C15.3146 21.0909 15.0533 19.8949 15.0533 18.5142C15.0533 17.1676 15.3146 15.9858 15.8374 14.9688C16.3601 13.9517 17.0959 13.1591 18.0447 12.5909C18.9993 12.0227 20.1186 11.7386 21.4027 11.7386C22.2663 11.7386 23.0703 11.8778 23.8146 12.1562C24.5646 12.429 25.218 12.8409 25.7749 13.392C26.3374 13.9432 26.7749 14.6364 27.0874 15.4716C27.3999 16.3011 27.5561 17.2727 27.5561 18.3864V19.3835H16.5021V17.1335H24.1385C24.1385 16.6108 24.0249 16.1477 23.7976 15.7443C23.5703 15.3409 23.255 15.0256 22.8516 14.7983C22.4538 14.5653 21.9908 14.4489 21.4624 14.4489C20.9112 14.4489 20.4226 14.5767 19.9964 14.8324C19.576 15.0824 19.2464 15.4205 19.0078 15.8466C18.7692 16.267 18.647 16.7358 18.6413 17.2528V19.392C18.6413 20.0398 18.7607 20.5994 18.9993 21.071C19.2436 21.5426 19.5874 21.9062 20.0305 22.1619C20.4737 22.4176 20.9993 22.5455 21.6072 22.5455C22.0107 22.5455 22.38 22.4886 22.7152 22.375C23.0504 22.2614 23.3374 22.0909 23.576 21.8636C23.8146 21.6364 23.9964 21.358 24.1214 21.0284L27.4794 21.25C27.3089 22.0568 26.9595 22.7614 26.4311 23.3636C25.9084 23.9602 25.2322 24.4261 24.4027 24.7614C23.5788 25.0909 22.6271 25.2557 21.5476 25.2557ZM29.9254 25V11.9091H33.4453V14.1932H33.5817C33.8203 13.3807 34.2209 12.767 34.7834 12.3523C35.3459 11.9318 35.9936 11.7216 36.7266 11.7216C36.9084 11.7216 37.1044 11.733 37.3146 11.7557C37.5249 11.7784 37.7095 11.8097 37.8686 11.8494V15.071C37.6982 15.0199 37.4624 14.9744 37.1612 14.9347C36.8601 14.8949 36.5845 14.875 36.3345 14.875C35.8004 14.875 35.3232 14.9915 34.9027 15.2244C34.4879 15.4517 34.1584 15.7699 33.9141 16.179C33.6754 16.5881 33.5561 17.0597 33.5561 17.5938V25H29.9254ZM43.3764 17.4318V25H39.7457V11.9091H43.206V14.2188H43.3594C43.6491 13.4574 44.1349 12.8551 44.8168 12.4119C45.4986 11.9631 46.3253 11.7386 47.2969 11.7386C48.206 11.7386 48.9986 11.9375 49.6747 12.3352C50.3509 12.733 50.8764 13.3011 51.2514 14.0398C51.6264 14.7727 51.8139 15.6477 51.8139 16.6648V25H48.1832V17.3125C48.1889 16.5114 47.9844 15.8864 47.5696 15.4375C47.1548 14.983 46.5838 14.7557 45.8565 14.7557C45.3679 14.7557 44.9361 14.8608 44.5611 15.071C44.1918 15.2812 43.902 15.5881 43.6918 15.9915C43.4872 16.3892 43.3821 16.8693 43.3764 17.4318ZM58.4084 25.2472C57.5732 25.2472 56.8288 25.1023 56.1754 24.8125C55.522 24.517 55.005 24.0824 54.6243 23.5085C54.2493 22.929 54.0618 22.2074 54.0618 21.3438C54.0618 20.6165 54.1953 20.0057 54.4624 19.5114C54.7294 19.017 55.093 18.6193 55.5533 18.3182C56.0135 18.017 56.5362 17.7898 57.1214 17.6364C57.7124 17.483 58.3317 17.375 58.9794 17.3125C59.7408 17.233 60.3544 17.1591 60.8203 17.0909C61.2862 17.017 61.6243 16.9091 61.8345 16.767C62.0447 16.625 62.1499 16.4148 62.1499 16.1364V16.0852C62.1499 15.5455 61.9794 15.1278 61.6385 14.8324C61.3033 14.5369 60.826 14.3892 60.2067 14.3892C59.5533 14.3892 59.0334 14.5341 58.647 14.8239C58.2607 15.108 58.005 15.4659 57.88 15.8977L54.522 15.625C54.6925 14.8295 55.0277 14.142 55.5277 13.5625C56.0277 12.9773 56.6726 12.5284 57.4624 12.2159C58.2578 11.8977 59.1783 11.7386 60.2237 11.7386C60.951 11.7386 61.647 11.8239 62.3118 11.9943C62.9822 12.1648 63.576 12.429 64.093 12.7869C64.6158 13.1449 65.0277 13.6051 65.3288 14.1676C65.63 14.7244 65.7805 15.392 65.7805 16.1705V25H62.3374V23.1847H62.2351C62.0249 23.5938 61.7436 23.9545 61.3913 24.267C61.0391 24.5739 60.6158 24.8153 60.1214 24.9915C59.6271 25.1619 59.0561 25.2472 58.4084 25.2472ZM59.4482 22.7415C59.9822 22.7415 60.4538 22.6364 60.8629 22.4261C61.272 22.2102 61.593 21.9205 61.826 21.5568C62.0589 21.1932 62.1754 20.7812 62.1754 20.321V18.9318C62.0618 19.0057 61.9055 19.0739 61.7067 19.1364C61.5135 19.1932 61.2947 19.2472 61.0504 19.2983C60.8061 19.3437 60.5618 19.3864 60.3175 19.4261C60.0732 19.4602 59.8516 19.4915 59.6527 19.5199C59.2266 19.5824 58.8544 19.6818 58.5362 19.8182C58.218 19.9545 57.9709 20.1392 57.7947 20.3722C57.6186 20.5994 57.5305 20.8835 57.5305 21.2244C57.5305 21.7188 57.7095 22.0966 58.0675 22.358C58.4311 22.6136 58.8913 22.7415 59.4482 22.7415ZM71.8871 21.233L71.8956 16.8778H72.424L76.6172 11.9091H80.7848L75.1513 18.4886H74.2905L71.8871 21.233ZM68.5973 25V7.54545H72.228V25H68.5973ZM76.7791 25L72.9268 19.2983L75.3473 16.733L81.032 25H76.7791Z" fill="#374151"/>
<rect width="24" height="33" transform="translate(82)" fill="#F97930"/>
<path d="M92.6051 18.9318H95.7415L97.3182 20.9602L98.8693 22.767L101.793 26.4318H98.3494L96.3381 23.9602L95.3068 22.4943L92.6051 18.9318ZM102.057 16.2727C102.057 18.1761 101.696 19.7955 100.974 21.1307C100.259 22.4659 99.2813 23.4858 98.0426 24.1903C96.8097 24.8892 95.4233 25.2386 93.8835 25.2386C92.3324 25.2386 90.9403 24.8864 89.7074 24.1818C88.4744 23.4773 87.5 22.4574 86.7841 21.1222C86.0682 19.7869 85.7102 18.1705 85.7102 16.2727C85.7102 14.3693 86.0682 12.75 86.7841 11.4148C87.5 10.0795 88.4744 9.0625 89.7074 8.36364C90.9403 7.65909 92.3324 7.30682 93.8835 7.30682C95.4233 7.30682 96.8097 7.65909 98.0426 8.36364C99.2813 9.0625 100.259 10.0795 100.974 11.4148C101.696 12.75 102.057 14.3693 102.057 16.2727ZM98.3153 16.2727C98.3153 15.0398 98.1307 14 97.7614 13.1534C97.3977 12.3068 96.8835 11.6648 96.2188 11.2273C95.554 10.7898 94.7756 10.571 93.8835 10.571C92.9915 10.571 92.2131 10.7898 91.5483 11.2273C90.8835 11.6648 90.3665 12.3068 89.9972 13.1534C89.6335 14 89.4517 15.0398 89.4517 16.2727C89.4517 17.5057 89.6335 18.5455 89.9972 19.392C90.3665 20.2386 90.8835 20.8807 91.5483 21.3182C92.2131 21.7557 92.9915 21.9744 93.8835 21.9744C94.7756 21.9744 95.554 21.7557 96.2188 21.3182C96.8835 20.8807 97.3977 20.2386 97.7614 19.392C98.1307 18.5455 98.3153 17.5057 98.3153 16.2727Z" fill="white"/>
</svg>
