<svg xmlns="http://www.w3.org/2000/svg"  viewBox="0 0 32 32" width="50px" height="50px"><path d="M 13.363281 2.9609375 C 10.691483 2.9609375 8.0191969 3.3054141 5.3554688 3.9941406 C 4.2318213 4.2849491 3.3894172 5.2062553 3.1796875 6.3378906 C 1.9869239 12.774332 1.9869339 19.224703 3.1796875 25.662109 C 3.3894172 26.793745 4.2318212 27.715051 5.3554688 28.005859 C 10.682925 29.383312 16.043637 29.383312 21.371094 28.005859 C 22.494741 27.715051 23.337145 26.793745 23.546875 25.662109 C 23.816816 24.207485 24.026026 22.751533 24.173828 21.294922 A 1.0001877 1.0001877 0 1 0 22.183594 21.09375 C 22.041395 22.495139 21.840137 23.895499 21.580078 25.296875 C 21.511808 25.66524 21.221493 25.977168 20.869141 26.068359 C 15.855239 27.364741 10.871316 27.364409 5.8574219 26.068359 C 5.5050694 25.977169 5.2147546 25.66524 5.1464844 25.296875 C 3.997238 19.094281 3.9972479 12.904684 5.1464844 6.703125 C 5.2147544 6.3347603 5.5050694 6.0228321 5.8574219 5.9316406 C 10.871316 4.6355911 15.855239 4.6352594 20.869141 5.9316406 C 21.221493 6.0228316 21.511808 6.3347603 21.580078 6.703125 C 21.842099 8.1182326 22.044261 9.5344906 22.1875 10.949219 A 1.0001877 1.0001877 0 1 0 24.177734 10.748047 C 24.028973 9.2787748 23.818854 7.8087362 23.546875 6.3398438 A 1.0001 1.0001 0 0 0 23.546875 6.3378906 C 23.337145 5.2062521 22.494741 4.2849491 21.371094 3.9941406 C 18.707366 3.3054141 16.03508 2.9609375 13.363281 2.9609375 z M 26.767578 10.988281 A 1.0001 1.0001 0 0 0 25.818359 12.357422 C 26.213274 13.391057 26.81034 14.26238 27.521484 15.021484 L 14.648438 15.021484 A 1.0001 1.0001 0 1 0 14.648438 17.021484 L 27.509766 17.021484 C 26.824932 17.737814 26.237738 18.586664 25.822266 19.630859 A 1.0002919 1.0002919 0 0 0 27.681641 20.369141 C 28.288686 18.843469 29.125884 17.936431 30.228516 17.410156 C 31.301151 16.898152 31.300082 15.261105 30.267578 14.716797 C 29.063566 14.081908 28.239586 13.094653 27.685547 11.644531 A 1.0001 1.0001 0 0 0 26.767578 10.988281 z" fill="#FFF9E9"/></svg>